<svg xmlns="http://www.w3.org/2000/svg" width="214" height="36" fill="none"><path fill="#000" d="M0 1.4h4.525v29.39h17.12v4.338H0V1.4Zm26.283 16.887c0-2.333.435-4.525 1.306-6.578a17.594 17.594 0 0 1 3.732-5.505 17.367 17.367 0 0 1 5.458-3.778c2.084-.933 4.323-1.4 6.718-1.4 2.363 0 4.571.467 6.624 1.4a17.217 17.217 0 0 1 5.505 3.778 17.22 17.22 0 0 1 3.779 5.505c.901 2.053 1.352 4.245 1.352 6.578 0 2.395-.45 4.634-1.352 6.718a17.22 17.22 0 0 1-3.78 5.504 18.002 18.002 0 0 1-5.504 3.686c-2.053.87-4.26 1.306-6.624 1.306-2.395 0-4.634-.435-6.718-1.306a17.477 17.477 0 0 1-5.458-3.639 17.042 17.042 0 0 1-3.732-5.458c-.87-2.084-1.306-4.354-1.306-6.811Zm4.665.047c0 1.772.326 3.436.98 4.991a13.248 13.248 0 0 0 2.705 4.059 12.948 12.948 0 0 0 4.012 2.799c1.524.653 3.172.98 4.945.98 1.742 0 3.374-.327 4.898-.98a12.397 12.397 0 0 0 3.966-2.8 13.692 13.692 0 0 0 2.659-4.058c.653-1.555.98-3.234.98-5.038 0-1.773-.327-3.437-.98-4.992a12.957 12.957 0 0 0-2.706-4.152 12.315 12.315 0 0 0-4.012-2.752c-1.524-.684-3.157-1.026-4.898-1.026-1.773 0-3.421.342-4.945 1.026a12.947 12.947 0 0 0-4.012 2.8 12.34 12.34 0 0 0-2.66 4.151c-.621 1.555-.932 3.219-.932 4.992Zm62.204 14.275c-.56.373-1.321.793-2.285 1.26-.965.466-2.1.854-3.406 1.165-1.275.311-2.675.467-4.198.467-2.613-.031-4.977-.498-7.091-1.4-2.084-.901-3.857-2.13-5.319-3.685a16.945 16.945 0 0 1-3.405-5.365c-.777-2.052-1.166-4.23-1.166-6.53 0-2.52.404-4.837 1.213-6.952.84-2.146 2.006-3.996 3.498-5.551a15.676 15.676 0 0 1 5.272-3.685c2.052-.871 4.292-1.307 6.718-1.307 2.021 0 3.856.28 5.504.84 1.649.529 3.064 1.166 4.246 1.913l-1.82 4.198c-.933-.622-2.068-1.213-3.405-1.773-1.307-.56-2.768-.84-4.385-.84a11.31 11.31 0 0 0-4.666.98 12.075 12.075 0 0 0-3.871 2.753c-1.12 1.182-2.007 2.566-2.66 4.152-.622 1.555-.933 3.234-.933 5.038 0 1.835.28 3.545.84 5.132.591 1.555 1.415 2.907 2.473 4.058 1.088 1.15 2.394 2.053 3.918 2.706s3.235.98 5.132.98c1.71 0 3.234-.265 4.572-.794 1.337-.528 2.44-1.12 3.312-1.772l1.912 4.012Zm4.261 2.519L112.155 0h.28l14.694 35.128h-5.178L110.942 7.09l3.219-2.1-12.316 30.137h-4.432Zm8.63-12.782h12.549l1.493 3.918h-15.348l1.306-3.918ZM133.482 1.4h4.525v29.39h17.121v4.338h-21.646V1.4Zm29.02 0h4.525v29.39h17.12v4.338h-21.645V1.4Zm34.377 22.485L184.377 1.4h5.551l10.03 18.613-1.399.093L208.495 1.4H214l-12.596 22.485v11.243h-4.525V23.885Z"/><path fill="#467894" fill-rule="evenodd" d="M43.664 24.398a6.065 6.065 0 1 0 0-12.13 6.065 6.065 0 0 0 0 12.13Zm0 4.198c5.669 0 10.264-4.595 10.264-10.263S49.333 8.07 43.663 8.07c-5.668 0-10.263 4.595-10.263 10.263 0 5.669 4.595 10.264 10.263 10.264Z" clip-rule="evenodd"/><circle cx="43.665" cy="18.333" r="2.799" fill="#000"/></svg>
