<svg width="32" height="32" viewBox="0 0 32 32" fill="none" xmlns="http://www.w3.org/2000/svg">
    <path
        d="M9 22C9.55229 22 10 21.5523 10 21C10 20.4477 9.55229 20 9 20C8.44771 20 8 20.4477 8 21C8 21.5523 8.44771 22 9 22Z"
        fill="#467894" />
    <path
        d="M6 21C6 21.5523 5.55228 22 5 22C4.44772 22 4 21.5523 4 21C4 20.4477 4.44772 20 5 20C5.55228 20 6 20.4477 6 21Z"
        fill="#467894" />
    <path
        d="M32 22C32 24.2091 30.2091 26 28 26H4C1.79086 26 0 24.2091 0 22V19.02C0 18.1834 0.209917 17.3602 0.610522 16.6257L5.55358 7.56344C6.07928 6.59966 7.08943 6 8.18727 6H23.8127C24.9106 6 25.9207 6.59966 26.4464 7.56344L31.3895 16.6257C31.7901 17.3602 32 18.1834 32 19.02V22ZM7.30937 8.52115L3.18463 16.0832C3.44788 16.0286 3.72059 16 4 16H28C28.2794 16 28.5521 16.0286 28.8154 16.0832L24.6906 8.52115C24.5154 8.19989 24.1787 8 23.8127 8H8.18727C7.82132 8 7.4846 8.19989 7.30937 8.52115ZM2 20V22C2 23.1046 2.89543 24 4 24H28C29.1046 24 30 23.1046 30 22V20C30 18.8954 29.1046 18 28 18H4C2.89543 18 2 18.8954 2 20Z"
        fill="#467894" />
</svg>
    