<svg width="112" height="19" viewBox="0 0 112 19" fill="none" xmlns="http://www.w3.org/2000/svg">
    <path d="M0 0.732453H2.36827V16.114H11.3286V18.3846H0V0.732453Z" fill="black"/>
    <path d="M13.7554 9.57073C13.7554 8.34997 13.9833 7.20246 14.4391 6.1282C14.9111 5.03765 15.5622 4.07733 16.3923 3.24721C17.2224 2.40082 18.1746 1.74161 19.2488 1.26959C20.3394 0.781284 21.5113 0.537133 22.7646 0.537133C24.0017 0.537133 25.1573 0.781284 26.2316 1.26959C27.3221 1.74161 28.2824 2.40082 29.1126 3.24721C29.9589 4.07733 30.6182 5.03765 31.0902 6.1282C31.5622 7.20246 31.7982 8.34997 31.7982 9.57073C31.7982 10.824 31.5622 11.996 31.0902 13.0865C30.6182 14.177 29.9589 15.1374 29.1126 15.9675C28.2824 16.7813 27.3221 17.4243 26.2316 17.8963C25.1573 18.352 24.0017 18.5799 22.7646 18.5799C21.5113 18.5799 20.3394 18.352 19.2488 17.8963C18.1746 17.4405 17.2224 16.8057 16.3923 15.9919C15.5622 15.1781 14.9111 14.2259 14.4391 13.1353C13.9833 12.0448 13.7554 10.8566 13.7554 9.57073ZM16.197 9.59514C16.197 10.5229 16.3679 11.3937 16.7097 12.2076C17.0515 13.0051 17.5235 13.7132 18.1257 14.3317C18.728 14.9502 19.4279 15.4385 20.2255 15.7966C21.023 16.1384 21.8857 16.3093 22.8135 16.3093C23.725 16.3093 24.5795 16.1384 25.377 15.7966C26.1746 15.4385 26.8664 14.9502 27.4523 14.3317C28.0383 13.7132 28.5022 13.0051 28.844 12.2076C29.1858 11.3937 29.3567 10.5148 29.3567 9.57073C29.3567 8.64295 29.1858 7.77215 28.844 6.95831C28.5022 6.1282 28.0302 5.40388 27.4279 4.78536C26.8257 4.16685 26.1258 3.68668 25.3282 3.34487C24.5307 2.98678 23.6761 2.80774 22.7646 2.80774C21.8368 2.80774 20.9742 2.98678 20.1766 3.34487C19.3791 3.70296 18.6792 4.19126 18.0769 4.80978C17.4747 5.4283 17.0108 6.15261 16.6853 6.98273C16.3597 7.79656 16.197 8.66737 16.197 9.59514Z" fill="black"/>
    <path d="M48.7526 17.0662C48.4596 17.2615 48.0609 17.4812 47.5563 17.7254C47.0517 17.9695 46.4576 18.173 45.774 18.3358C45.1066 18.4985 44.3742 18.5799 43.5766 18.5799C42.2094 18.5636 40.9723 18.3195 39.8655 17.8475C38.775 17.3754 37.8472 16.7325 37.0822 15.9187C36.3172 15.1048 35.7231 14.1689 35.2999 13.1109C34.893 12.0367 34.6895 10.8973 34.6895 9.6928C34.6895 8.37439 34.9011 7.16177 35.3243 6.05495C35.7638 4.93186 36.3741 3.96339 37.1554 3.14955C37.9367 2.31944 38.8564 1.67651 39.9143 1.22076C40.9886 0.765007 42.1605 0.537133 43.4301 0.537133C44.4881 0.537133 45.4484 0.683623 46.3111 0.976604C47.1738 1.25331 47.9144 1.58698 48.5329 1.97762L47.5807 4.17499C47.0924 3.84945 46.4983 3.54019 45.7984 3.24721C45.1148 2.95423 44.3498 2.80774 43.5034 2.80774C42.6407 2.80774 41.8269 2.97864 41.0619 3.32046C40.2968 3.66227 39.6214 4.14243 39.0354 4.76095C38.4494 5.37947 37.9855 6.10378 37.6437 6.9339C37.3182 7.74773 37.1554 8.62668 37.1554 9.57073C37.1554 10.5311 37.3019 11.4263 37.5949 12.2564C37.9042 13.0702 38.3355 13.7783 38.8889 14.3805C39.4586 14.9827 40.1422 15.4548 40.9398 15.7966C41.7373 16.1384 42.6326 16.3093 43.6254 16.3093C44.5207 16.3093 45.3182 16.171 46.0181 15.8942C46.718 15.6175 47.2958 15.3083 47.7516 14.9665L48.7526 17.0662Z" fill="black"/>
    <path d="M50.9826 18.3846L58.6978 0H58.8443L66.535 18.3846H63.8249L58.063 3.7111L59.7476 2.61242L53.302 18.3846H50.9826ZM55.4994 11.6948H62.0671L62.8483 13.7457H54.8158L55.4994 11.6948Z" fill="black"/>
    <path d="M69.8597 0.732453H72.2279V16.114H81.1883V18.3846H69.8597V0.732453Z" fill="black"/>
    <path d="M85.0476 0.732453H87.4159V16.114H96.3762V18.3846H85.0476V0.732453Z" fill="black"/>
    <path d="M103.04 12.5005L96.4964 0.732453H99.4018L104.651 10.4741L103.919 10.5229L109.119 0.732453H112L105.408 12.5005V18.3846H103.04V12.5005Z" fill="black"/>
    <path fill-rule="evenodd" clip-rule="evenodd" d="M22.8523 12.7689C24.6052 12.7689 26.0263 11.3479 26.0263 9.59496C26.0263 7.84203 24.6052 6.42099 22.8523 6.42099C21.0994 6.42099 19.6783 7.84203 19.6783 9.59496C19.6783 11.3479 21.0994 12.7689 22.8523 12.7689ZM22.8523 14.9663C25.8188 14.9663 28.2236 12.5615 28.2236 9.59496C28.2236 6.62846 25.8188 4.22363 22.8523 4.22363C19.8858 4.22363 17.481 6.62846 17.481 9.59496C17.481 12.5615 19.8858 14.9663 22.8523 14.9663Z" fill="#467894"/>
    <circle cx="22.8526" cy="9.59479" r="1.46491" fill="black"/>
    </svg>
    